<?xml version="1.0" standalone="no"?>
<!DOCTYPE svg PUBLIC "-//W3C//DTD SVG 1.1//EN" "http://www.w3.org/Graphics/SVG/1.1/DTD/svg11.dtd">
<svg version="1.1" xmlns="http://www.w3.org/2000/svg" viewBox="0 0 442.66668701171875 341.3333435058594" width="1328.0000610351562" height="1024.0000305175781" filter="invert(93%) hue-rotate(180deg)"><!-- svg-source:excalidraw --><metadata></metadata><defs><style class="style-fonts">
      </style></defs><g stroke-opacity="0.5" fill-opacity="0.5" stroke-linecap="round" transform="translate(10 10) rotate(0 211.33334350585938 160.6666717529297)"><path d="M422.67 160.67 C422.67 164.49, 422.49 168.32, 422.13 172.13 C421.77 175.94, 421.23 179.75, 420.52 183.53 C419.8 187.31, 418.91 191.09, 417.84 194.82 C416.77 198.55, 415.52 202.27, 414.11 205.93 C412.69 209.6, 411.1 213.23, 409.34 216.81 C407.59 220.39, 405.66 223.93, 403.57 227.41 C401.48 230.89, 399.22 234.31, 396.82 237.67 C394.41 241.02, 391.84 244.32, 389.12 247.53 C386.4 250.74, 383.53 253.89, 380.51 256.95 C377.5 260.01, 374.34 262.99, 371.05 265.88 C367.76 268.77, 364.32 271.57, 360.77 274.28 C357.22 276.98, 353.53 279.59, 349.73 282.09 C345.93 284.59, 342 287, 337.98 289.29 C333.96 291.58, 329.82 293.76, 325.59 295.83 C321.36 297.89, 317.03 299.85, 312.61 301.68 C308.2 303.51, 303.7 305.23, 299.12 306.81 C294.55 308.4, 289.9 309.87, 285.19 311.2 C280.48 312.54, 275.69 313.75, 270.87 314.83 C266.05 315.9, 261.17 316.85, 256.26 317.66 C251.34 318.47, 246.38 319.15, 241.41 319.7 C236.43 320.24, 231.42 320.65, 226.41 320.92 C221.4 321.2, 216.36 321.33, 211.33 321.33 C206.31 321.33, 201.27 321.2, 196.26 320.92 C191.24 320.65, 186.23 320.24, 181.26 319.7 C176.28 319.15, 171.32 318.47, 166.41 317.66 C161.5 316.85, 156.62 315.9, 151.79 314.83 C146.97 313.75, 142.19 312.54, 137.48 311.2 C132.77 309.87, 128.11 308.4, 123.54 306.81 C118.97 305.23, 114.46 303.51, 110.05 301.68 C105.64 299.85, 101.31 297.89, 97.08 295.83 C92.85 293.76, 88.71 291.58, 84.69 289.29 C80.66 287, 76.74 284.59, 72.94 282.09 C69.14 279.59, 65.45 276.98, 61.9 274.28 C58.34 271.57, 54.91 268.77, 51.62 265.88 C48.33 262.99, 45.16 260.01, 42.15 256.95 C39.14 253.89, 36.27 250.74, 33.55 247.53 C30.83 244.32, 28.26 241.02, 25.85 237.67 C23.44 234.31, 21.19 230.89, 19.1 227.41 C17.01 223.93, 15.08 220.39, 13.32 216.81 C11.57 213.23, 9.98 209.6, 8.56 205.93 C7.14 202.27, 5.9 198.55, 4.83 194.82 C3.76 191.09, 2.87 187.31, 2.15 183.53 C1.44 179.75, 0.9 175.94, 0.54 172.13 C0.18 168.32, 0 164.49, 0 160.67 C0 156.85, 0.18 153.02, 0.54 149.2 C0.9 145.39, 1.44 141.58, 2.15 137.8 C2.87 134.02, 3.76 130.25, 4.83 126.51 C5.9 122.78, 7.14 119.07, 8.56 115.4 C9.98 111.74, 11.57 108.1, 13.32 104.52 C15.08 100.94, 17.01 97.4, 19.1 93.92 C21.19 90.45, 23.44 87.02, 25.85 83.67 C28.26 80.31, 30.83 77.02, 33.55 73.8 C36.27 70.59, 39.14 67.44, 42.15 64.38 C45.16 61.32, 48.33 58.34, 51.62 55.45 C54.91 52.56, 58.34 49.76, 61.9 47.06 C65.45 44.36, 69.14 41.74, 72.94 39.24 C76.74 36.74, 80.66 34.34, 84.69 32.05 C88.71 29.76, 92.85 27.57, 97.08 25.51 C101.31 23.44, 105.64 21.48, 110.05 19.65 C114.46 17.82, 118.97 16.11, 123.54 14.52 C128.11 12.93, 132.77 11.47, 137.48 10.13 C142.19 8.79, 146.97 7.58, 151.79 6.51 C156.62 5.43, 161.5 4.48, 166.41 3.67 C171.32 2.86, 176.28 2.18, 181.26 1.64 C186.23 1.09, 191.24 0.68, 196.26 0.41 C201.27 0.14, 206.31 0, 211.33 0 C216.36 0, 221.4 0.14, 226.41 0.41 C231.42 0.68, 236.43 1.09, 241.41 1.64 C246.38 2.18, 251.34 2.86, 256.26 3.67 C261.17 4.48, 266.05 5.43, 270.87 6.51 C275.69 7.58, 280.48 8.79, 285.19 10.13 C289.9 11.47, 294.55 12.93, 299.12 14.52 C303.7 16.11, 308.2 17.82, 312.61 19.65 C317.03 21.48, 321.36 23.44, 325.59 25.51 C329.82 27.57, 333.96 29.76, 337.98 32.05 C342 34.34, 345.93 36.74, 349.73 39.24 C353.53 41.74, 357.22 44.36, 360.77 47.06 C364.32 49.76, 367.76 52.56, 371.05 55.45 C374.34 58.34, 377.5 61.32, 380.51 64.38 C383.53 67.44, 386.4 70.59, 389.12 73.8 C391.84 77.02, 394.41 80.31, 396.82 83.67 C399.22 87.02, 401.48 90.45, 403.57 93.92 C405.66 97.4, 407.59 100.94, 409.34 104.52 C411.1 108.1, 412.69 111.74, 414.11 115.4 C415.52 119.07, 416.77 122.78, 417.84 126.51 C418.91 130.25, 419.8 134.02, 420.52 137.8 C421.23 141.58, 421.77 145.39, 422.13 149.2 C422.49 153.02, 422.67 156.85, 422.67 160.67" stroke="none" stroke-width="0" fill="#7093db"></path><path d="M422.67 160.67 C422.67 164.49, 422.49 168.32, 422.13 172.13 C421.77 175.94, 421.23 179.75, 420.52 183.53 C419.8 187.31, 418.91 191.09, 417.84 194.82 C416.77 198.55, 415.52 202.27, 414.11 205.93 C412.69 209.6, 411.1 213.23, 409.34 216.81 C407.59 220.39, 405.66 223.93, 403.57 227.41 C401.48 230.89, 399.22 234.31, 396.82 237.67 C394.41 241.02, 391.84 244.32, 389.12 247.53 C386.4 250.74, 383.53 253.89, 380.51 256.95 C377.5 260.01, 374.34 262.99, 371.05 265.88 C367.76 268.77, 364.32 271.57, 360.77 274.28 C357.22 276.98, 353.53 279.59, 349.73 282.09 C345.93 284.59, 342 287, 337.98 289.29 C333.96 291.58, 329.82 293.76, 325.59 295.83 C321.36 297.89, 317.03 299.85, 312.61 301.68 C308.2 303.51, 303.7 305.23, 299.12 306.81 C294.55 308.4, 289.9 309.87, 285.19 311.2 C280.48 312.54, 275.69 313.75, 270.87 314.83 C266.05 315.9, 261.17 316.85, 256.26 317.66 C251.34 318.47, 246.38 319.15, 241.41 319.7 C236.43 320.24, 231.42 320.65, 226.41 320.92 C221.4 321.2, 216.36 321.33, 211.33 321.33 C206.31 321.33, 201.27 321.2, 196.26 320.92 C191.24 320.65, 186.23 320.24, 181.26 319.7 C176.28 319.15, 171.32 318.47, 166.41 317.66 C161.5 316.85, 156.62 315.9, 151.79 314.83 C146.97 313.75, 142.19 312.54, 137.48 311.2 C132.77 309.87, 128.11 308.4, 123.54 306.81 C118.97 305.23, 114.46 303.51, 110.05 301.68 C105.64 299.85, 101.31 297.89, 97.08 295.83 C92.85 293.76, 88.71 291.58, 84.69 289.29 C80.66 287, 76.74 284.59, 72.94 282.09 C69.14 279.59, 65.45 276.98, 61.9 274.28 C58.34 271.57, 54.91 268.77, 51.62 265.88 C48.33 262.99, 45.16 260.01, 42.15 256.95 C39.14 253.89, 36.27 250.74, 33.55 247.53 C30.83 244.32, 28.26 241.02, 25.85 237.67 C23.44 234.31, 21.19 230.89, 19.1 227.41 C17.01 223.93, 15.08 220.39, 13.32 216.81 C11.57 213.23, 9.98 209.6, 8.56 205.93 C7.14 202.27, 5.9 198.55, 4.83 194.82 C3.76 191.09, 2.87 187.31, 2.15 183.53 C1.44 179.75, 0.9 175.94, 0.54 172.13 C0.18 168.32, 0 164.49, 0 160.67 C0 156.85, 0.18 153.02, 0.54 149.2 C0.9 145.39, 1.44 141.58, 2.15 137.8 C2.87 134.02, 3.76 130.25, 4.83 126.51 C5.9 122.78, 7.14 119.07, 8.56 115.4 C9.98 111.74, 11.57 108.1, 13.32 104.52 C15.08 100.94, 17.01 97.4, 19.1 93.92 C21.19 90.45, 23.44 87.02, 25.85 83.67 C28.26 80.31, 30.83 77.02, 33.55 73.8 C36.27 70.59, 39.14 67.44, 42.15 64.38 C45.16 61.32, 48.33 58.34, 51.62 55.45 C54.91 52.56, 58.34 49.76, 61.9 47.06 C65.45 44.36, 69.14 41.74, 72.94 39.24 C76.74 36.74, 80.66 34.34, 84.69 32.05 C88.71 29.76, 92.85 27.57, 97.08 25.51 C101.31 23.44, 105.64 21.48, 110.05 19.65 C114.46 17.82, 118.97 16.11, 123.54 14.52 C128.11 12.93, 132.77 11.47, 137.48 10.13 C142.19 8.79, 146.97 7.58, 151.79 6.51 C156.62 5.43, 161.5 4.48, 166.41 3.67 C171.32 2.86, 176.28 2.18, 181.26 1.64 C186.23 1.09, 191.24 0.68, 196.26 0.41 C201.27 0.14, 206.31 0, 211.33 0 C216.36 0, 221.4 0.14, 226.41 0.41 C231.42 0.68, 236.43 1.09, 241.41 1.64 C246.38 2.18, 251.34 2.86, 256.26 3.67 C261.17 4.48, 266.05 5.43, 270.87 6.51 C275.69 7.58, 280.48 8.79, 285.19 10.13 C289.9 11.47, 294.55 12.93, 299.12 14.52 C303.7 16.11, 308.2 17.82, 312.61 19.65 C317.03 21.48, 321.36 23.44, 325.59 25.51 C329.82 27.57, 333.96 29.76, 337.98 32.05 C342 34.34, 345.93 36.74, 349.73 39.24 C353.53 41.74, 357.22 44.36, 360.77 47.06 C364.32 49.76, 367.76 52.56, 371.05 55.45 C374.34 58.34, 377.5 61.32, 380.51 64.38 C383.53 67.44, 386.4 70.59, 389.12 73.8 C391.84 77.02, 394.41 80.31, 396.82 83.67 C399.22 87.02, 401.48 90.45, 403.57 93.92 C405.66 97.4, 407.59 100.94, 409.34 104.52 C411.1 108.1, 412.69 111.74, 414.11 115.4 C415.52 119.07, 416.77 122.78, 417.84 126.51 C418.91 130.25, 419.8 134.02, 420.52 137.8 C421.23 141.58, 421.77 145.39, 422.13 149.2 C422.49 153.02, 422.67 156.85, 422.67 160.67" stroke="#7093db" stroke-width="4" fill="none"></path></g><g transform="translate(25.33331298828125 207.33334350585938) rotate(0 183.33334350585938 -49.66667175292969)" stroke="none"><path fill="#1e1e1e" d="M -1.02,-3.93 Q -1.02,-3.93 4.15,-5.27 9.32,-6.62 15.93,-8.34 22.54,-10.05 30.43,-12.49 38.33,-14.92 46.96,-18.22 55.60,-21.52 64.57,-25.58 73.55,-29.63 82.68,-34.40 91.80,-39.16 100.58,-44.58 109.36,-50.00 117.84,-55.91 126.32,-61.83 133.64,-68.08 140.97,-74.33 147.25,-80.92 153.54,-87.51 158.01,-93.80 162.47,-100.08 165.46,-105.68 168.45,-111.28 169.60,-115.77 170.76,-120.27 170.44,-122.96 170.11,-125.65 168.22,-127.14 166.33,-128.62 163.20,-129.22 160.08,-129.82 155.41,-130.02 150.74,-130.22 145.70,-128.86 140.66,-127.50 135.06,-124.56 129.45,-121.63 121.31,-114.81 113.17,-107.98 107.50,-102.92 101.84,-97.86 96.17,-90.92 90.50,-83.99 85.06,-75.75 79.62,-67.52 75.27,-58.79 70.91,-50.06 67.76,-41.30 64.62,-32.55 62.73,-24.37 60.85,-16.18 60.05,-9.01 59.26,-1.85 59.86,4.09 60.45,10.04 63.17,15.12 65.90,20.20 69.25,23.29 72.60,26.38 75.13,27.81 77.66,29.25 81.39,29.95 85.11,30.65 89.90,30.42 94.69,30.20 99.97,28.84 105.26,27.48 111.08,25.23 116.91,22.97 122.90,19.79 128.90,16.60 134.99,12.44 141.08,8.28 146.90,3.68 152.71,-0.92 158.38,-6.08 164.05,-11.24 169.32,-16.48 174.58,-21.71 179.47,-26.97 184.37,-32.24 188.55,-36.95 192.73,-41.67 195.82,-45.37 198.91,-49.07 200.95,-51.74 203.00,-54.41 204.68,-56.74 206.36,-59.07 206.69,-59.44 207.02,-59.80 207.42,-60.08 207.83,-60.35 208.29,-60.52 208.75,-60.69 209.24,-60.75 209.72,-60.81 210.21,-60.74 210.70,-60.68 211.15,-60.51 211.61,-60.33 212.01,-60.05 212.41,-59.77 212.74,-59.40 213.06,-59.03 213.28,-58.59 213.51,-58.16 213.62,-57.68 213.74,-57.20 213.74,-56.71 213.73,-56.22 213.61,-55.75 213.49,-55.27 213.26,-54.84 213.03,-54.41 210.90,-49.60 208.76,-44.80 206.70,-40.79 204.64,-36.79 202.45,-32.24 200.26,-27.68 198.42,-23.00 196.59,-18.31 195.47,-14.17 194.34,-10.02 193.69,-6.42 193.03,-2.83 192.95,-0.03 192.87,2.75 194.37,5.09 195.87,7.42 199.50,6.91 203.13,6.39 207.29,3.66 211.46,0.94 214.48,-1.36 217.50,-3.67 221.20,-7.06 224.90,-10.46 228.92,-14.73 232.94,-18.99 237.15,-23.69 241.36,-28.38 245.20,-33.18 249.04,-37.98 252.63,-42.37 256.22,-46.77 259.07,-50.33 261.92,-53.90 264.35,-56.65 266.78,-59.41 270.54,-60.97 274.30,-62.54 276.01,-58.68 277.72,-54.81 277.43,-51.24 277.14,-47.67 276.83,-42.35 276.52,-37.04 276.19,-33.35 275.86,-29.66 275.73,-25.55 275.60,-21.44 275.92,-17.38 276.24,-13.32 277.27,-9.57 278.30,-5.82 279.93,-2.77 281.56,0.26 283.65,2.18 285.75,4.10 288.33,5.14 290.91,6.17 294.11,6.43 297.31,6.69 302.06,5.20 306.80,3.71 310.20,2.19 313.59,0.67 317.54,-1.96 321.49,-4.59 325.80,-8.14 330.12,-11.70 334.24,-15.49 338.36,-19.28 341.96,-23.12 345.55,-26.95 348.57,-30.63 351.59,-34.32 354.00,-37.57 356.40,-40.82 357.86,-43.68 359.31,-46.55 360.29,-48.80 361.26,-51.04 362.69,-53.52 364.12,-55.99 364.29,-56.38 364.47,-56.77 364.75,-57.08 365.04,-57.40 365.41,-57.60 365.79,-57.81 366.21,-57.88 366.62,-57.95 367.04,-57.89 367.46,-57.83 367.84,-57.64 368.22,-57.44 368.52,-57.14 368.81,-56.83 369.00,-56.45 369.18,-56.07 369.23,-55.65 369.29,-55.22 369.20,-54.81 369.12,-54.39 368.90,-54.02 368.69,-53.66 368.37,-53.38 368.05,-53.10 367.66,-52.93 367.26,-52.77 366.84,-52.74 366.42,-52.71 366.00,-52.82 365.59,-52.93 365.24,-53.16 364.88,-53.40 364.62,-53.73 364.36,-54.06 364.22,-54.47 364.08,-54.87 364.07,-55.29 364.06,-55.72 364.19,-56.12 364.32,-56.53 364.58,-56.87 364.83,-57.21 365.18,-57.45 365.52,-57.70 365.93,-57.82 366.34,-57.94 366.77,-57.92 367.19,-57.90 367.59,-57.75 367.98,-57.60 368.31,-57.33 368.64,-57.06 368.86,-56.70 369.09,-56.34 369.18,-55.92 369.28,-55.51 369.24,-55.08 369.20,-54.66 369.20,-54.66 369.20,-54.66 369.04,-51.08 368.89,-47.50 367.71,-45.16 366.54,-42.82 364.74,-39.40 362.95,-35.99 360.41,-32.57 357.88,-29.15 354.68,-25.27 351.48,-21.38 347.67,-17.34 343.86,-13.29 339.57,-9.35 335.28,-5.41 330.62,-1.61 325.97,2.19 321.43,5.15 316.90,8.10 312.96,9.82 309.03,11.53 302.85,13.14 296.67,14.76 292.19,14.19 287.71,13.63 283.96,11.82 280.21,10.02 277.31,7.07 274.42,4.12 272.44,0.21 270.45,-3.69 269.29,-8.18 268.13,-12.68 267.80,-17.19 267.47,-21.70 267.61,-26.05 267.76,-30.39 268.08,-33.95 268.40,-37.52 268.72,-42.96 269.04,-48.41 270.96,-51.21 272.88,-54.01 270.57,-51.42 268.27,-48.82 265.40,-45.22 262.52,-41.62 258.95,-37.26 255.39,-32.90 251.40,-27.92 247.42,-22.95 243.14,-18.18 238.86,-13.41 234.63,-8.94 230.40,-4.46 226.41,-0.83 222.43,2.80 219.09,5.32 215.76,7.84 210.39,11.06 205.02,14.27 201.00,14.94 196.99,15.61 193.74,14.47 190.48,13.32 188.48,10.99 186.47,8.65 185.62,5.65 184.76,2.64 184.89,-0.82 185.03,-4.30 185.76,-8.23 186.50,-12.17 187.76,-16.72 189.01,-21.28 190.97,-26.25 192.93,-31.21 195.16,-35.84 197.39,-40.47 199.42,-44.53 201.45,-48.60 203.07,-51.66 204.70,-54.73 205.53,-56.90 206.36,-59.07 206.69,-59.43 207.02,-59.80 207.42,-60.08 207.83,-60.35 208.29,-60.52 208.75,-60.69 209.24,-60.75 209.72,-60.81 210.21,-60.74 210.70,-60.68 211.15,-60.51 211.61,-60.33 212.01,-60.05 212.41,-59.77 212.74,-59.40 213.06,-59.03 213.28,-58.59 213.51,-58.16 213.62,-57.68 213.74,-57.20 213.74,-56.71 213.73,-56.22 213.61,-55.75 213.49,-55.27 213.26,-54.84 213.03,-54.41 211.24,-51.94 209.46,-49.47 207.31,-46.66 205.15,-43.85 201.98,-40.06 198.81,-36.27 194.57,-31.48 190.32,-26.70 185.32,-21.32 180.32,-15.94 174.92,-10.58 169.52,-5.22 163.64,0.11 157.75,5.45 151.71,10.23 145.66,15.01 139.18,19.40 132.71,23.78 126.27,27.18 119.83,30.57 113.53,32.97 107.23,35.37 101.12,36.85 95.01,38.33 89.24,38.47 83.46,38.61 78.56,37.46 73.66,36.31 70.33,34.29 66.99,32.27 62.86,28.14 58.73,24.00 55.57,17.51 52.41,11.01 51.80,4.14 51.18,-2.72 52.05,-10.37 52.92,-18.02 54.94,-26.66 56.96,-35.31 60.30,-44.50 63.64,-53.69 68.23,-62.85 72.83,-72.00 78.52,-80.58 84.21,-89.15 90.31,-96.53 96.41,-103.91 102.19,-109.07 107.97,-114.24 116.84,-121.54 125.70,-128.85 132.16,-132.11 138.62,-135.37 144.84,-136.85 151.05,-138.33 156.61,-138.01 162.17,-137.68 166.90,-136.15 171.62,-134.62 174.67,-131.09 177.71,-127.56 178.17,-122.96 178.63,-118.36 177.13,-112.92 175.63,-107.48 172.36,-101.41 169.09,-95.35 164.26,-88.63 159.42,-81.90 152.84,-75.02 146.25,-68.15 138.61,-61.65 130.98,-55.16 122.30,-49.12 113.63,-43.08 104.60,-37.51 95.57,-31.94 86.23,-27.08 76.90,-22.22 67.70,-18.07 58.50,-13.92 49.61,-10.53 40.72,-7.14 32.65,-4.66 24.59,-2.18 17.98,-0.46 11.37,1.25 6.19,2.59 1.02,3.93 0.53,4.00 0.04,4.06 -0.43,4.01 -0.92,3.96 -1.38,3.79 -1.84,3.62 -2.25,3.35 -2.66,3.07 -2.98,2.71 -3.31,2.35 -3.55,1.91 -3.78,1.48 -3.90,1.01 -4.03,0.53 -4.03,0.04 -4.04,-0.44 -3.93,-0.91 -3.81,-1.39 -3.59,-1.83 -3.37,-2.27 -3.05,-2.64 -2.73,-3.01 -2.33,-3.29 -1.93,-3.57 -1.47,-3.75 -1.02,-3.93 -1.02,-3.93 L -1.02,-3.93 Z"></path></g><g transform="translate(37.33331298828125 208) rotate(0 21 11.333328247070312)" stroke="none"><path fill="#1e1e1e" d="M 2.00,-3.54 Q 2.00,-3.54 6.40,-1.04 10.81,1.44 13.19,2.65 15.56,3.86 17.86,5.22 20.16,6.58 22.42,7.89 24.68,9.19 27.49,10.67 30.30,12.15 33.06,13.49 35.83,14.83 38.15,16.00 40.46,17.17 41.82,18.75 43.18,20.32 43.52,20.57 43.87,20.82 44.11,21.17 44.36,21.51 44.48,21.92 44.60,22.33 44.59,22.75 44.57,23.18 44.42,23.58 44.27,23.97 44.00,24.30 43.73,24.63 43.37,24.86 43.01,25.08 42.60,25.18 42.19,25.28 41.76,25.24 41.34,25.21 40.95,25.03 40.56,24.86 40.25,24.58 39.93,24.29 39.73,23.92 39.52,23.55 39.45,23.13 39.37,22.71 39.43,22.29 39.49,21.87 39.68,21.49 39.87,21.11 40.18,20.81 40.48,20.52 40.86,20.33 41.24,20.14 41.67,20.09 42.09,20.04 42.50,20.12 42.92,20.20 43.29,20.42 43.66,20.63 43.94,20.95 44.22,21.27 44.38,21.66 44.55,22.05 44.58,22.47 44.61,22.90 44.51,23.31 44.40,23.72 44.17,24.08 43.94,24.43 43.60,24.70 43.27,24.96 42.87,25.10 42.47,25.25 42.04,25.25 41.62,25.26 41.21,25.13 40.81,25.00 40.81,25.01 40.81,25.01 38.74,24.84 36.66,24.68 34.33,23.50 32.00,22.32 29.25,20.83 26.50,19.35 23.55,17.79 20.59,16.23 18.31,14.90 16.02,13.58 13.94,12.34 11.86,11.10 9.33,9.81 6.81,8.52 2.40,6.03 -2.00,3.54 -2.39,3.24 -2.79,2.95 -3.10,2.58 -3.41,2.20 -3.63,1.76 -3.84,1.32 -3.94,0.84 -4.05,0.36 -4.03,-0.12 -4.02,-0.61 -3.88,-1.08 -3.75,-1.56 -3.51,-1.98 -3.27,-2.41 -2.93,-2.77 -2.60,-3.12 -2.18,-3.39 -1.77,-3.65 -1.31,-3.81 -0.84,-3.97 -0.36,-4.02 0.12,-4.06 0.61,-3.99 1.09,-3.91 1.54,-3.72 2.00,-3.54 2.00,-3.54 L 2.00,-3.54 Z"></path></g><g transform="translate(161.33331298828125 108) rotate(0 0.00004999999998744897 0.00004999999998744897)" stroke="none"><path fill="#1e1e1e" d="M 4.25,-4.24 Q 4.25,-4.24 4.81,-3.46 5.38,-2.67 5.67,-1.74 5.95,-0.81 5.92,0.16 5.90,1.13 5.56,2.04 5.23,2.95 4.62,3.71 4.01,4.47 3.19,4.99 2.37,5.52 1.43,5.75 0.48,5.99 -0.48,5.91 -1.45,5.83 -2.34,5.44 -3.23,5.06 -3.96,4.41 -4.68,3.76 -5.16,2.91 -5.64,2.07 -5.82,1.11 -6.00,0.16 -5.87,-0.80 -5.74,-1.76 -5.31,-2.63 -4.88,-3.50 -4.19,-4.19 -3.50,-4.88 -2.63,-5.31 -1.76,-5.74 -0.79,-5.87 0.16,-6.00 1.11,-5.82 2.07,-5.64 2.92,-5.16 3.76,-4.68 4.41,-3.95 5.06,-3.23 5.44,-2.34 5.83,-1.44 5.91,-0.47 5.99,0.48 5.75,1.43 5.52,2.37 4.99,3.19 4.47,4.01 3.71,4.62 2.95,5.23 2.04,5.56 1.13,5.90 0.15,5.92 -0.81,5.95 -1.74,5.66 -2.67,5.38 -3.46,4.81 -4.25,4.24 -4.25,4.24 -4.24,4.25 -4.69,3.67 -5.14,3.10 -5.44,2.44 -5.73,1.78 -5.86,1.07 -5.99,0.36 -5.95,-0.36 -5.91,-1.08 -5.69,-1.77 -5.48,-2.46 -5.10,-3.08 -4.73,-3.70 -4.21,-4.21 -3.70,-4.73 -3.08,-5.10 -2.46,-5.48 -1.77,-5.69 -1.08,-5.91 -0.35,-5.95 0.36,-5.99 1.07,-5.86 1.78,-5.73 2.44,-5.44 3.10,-5.14 3.68,-4.69 4.25,-4.24 4.25,-4.24 L 4.25,-4.24 Z"></path></g><g stroke-linecap="round" transform="translate(260.66656494140625 64.66665649414062) rotate(0 27.333343505859375 29)"><path d="M33.42 1.54 C38.84 2.66, 45.74 7.2, 49.24 12.08 C52.73 16.95, 54.89 24.76, 54.39 30.78 C53.89 36.8, 50.21 43.78, 46.24 48.21 C42.26 52.65, 36.22 56.61, 30.53 57.4 C24.85 58.18, 17.11 56.32, 12.11 52.93 C7.12 49.54, 2.15 42.92, 0.57 37.07 C-1.01 31.22, 0.21 23.41, 2.62 17.84 C5.02 12.27, 9.24 6.37, 15.02 3.67 C20.79 0.97, 32.84 1.53, 37.25 1.65 C41.67 1.78, 41.43 3.97, 41.51 4.41 M20.5 0.54 C25.8 -1.18, 34.48 -0.56, 39.68 2.51 C44.89 5.57, 49.38 12.94, 51.72 18.95 C54.07 24.97, 55.53 32.75, 53.73 38.61 C51.92 44.47, 45.69 50.9, 40.9 54.12 C36.11 57.34, 30.72 58.99, 24.99 57.92 C19.26 56.84, 10.51 52.19, 6.52 47.66 C2.52 43.13, 1.42 36.64, 1.02 30.73 C0.62 24.82, 0.92 17.26, 4.14 12.2 C7.35 7.15, 17.62 1.97, 20.31 0.39 C22.99 -1.2, 20.11 2, 20.27 2.67" stroke="none" stroke-width="0" fill="#f08c00"></path><path d="M37.83 3.03 C42.99 5.02, 48.73 9.85, 51.41 15.31 C54.09 20.77, 55.22 29.77, 53.93 35.79 C52.64 41.82, 48.41 47.71, 43.69 51.47 C38.98 55.23, 31.34 58.54, 25.64 58.35 C19.93 58.17, 13.56 54.63, 9.47 50.35 C5.37 46.06, 1.8 38.83, 1.08 32.65 C0.36 26.46, 2.23 18.48, 5.15 13.24 C8.06 7.99, 12.64 2.86, 18.58 1.16 C24.51 -0.54, 36.69 2.02, 40.74 3.03 C44.8 4.04, 43.12 6.49, 42.91 7.21 M26.75 -0.59 C32.17 -1.54, 38.74 0.9, 43.09 4.69 C47.45 8.49, 51.54 15.66, 52.9 22.19 C54.26 28.73, 53.88 38.38, 51.25 43.92 C48.61 49.46, 42.47 53.48, 37.08 55.45 C31.69 57.42, 24.34 57.64, 18.91 55.75 C13.48 53.86, 7.64 49.43, 4.5 44.12 C1.35 38.81, -0.65 29.94, 0.03 23.87 C0.72 17.8, 4.18 11.84, 8.59 7.68 C13.01 3.52, 23.58 0.31, 26.53 -1.09 C29.48 -2.5, 26.09 -1.44, 26.29 -0.76" stroke="#f08c00" stroke-width="1" fill="none"></path></g><g transform="translate(110.66668701171875 222.66665649414062) rotate(0 137.33331298828125 0.333343505859375)" stroke="none"><path fill="#1971c2" d="M 3.95,0.94 Q 3.95,0.94 2.99,4.96 2.04,8.99 1.46,12.28 0.89,15.57 1.22,18.01 1.56,20.44 3.69,24.34 5.82,28.25 9.35,30.68 12.89,33.11 15.36,33.92 17.84,34.74 20.51,35.03 23.18,35.32 25.71,34.60 28.24,33.88 31.41,32.50 34.58,31.12 37.75,29.24 40.92,27.37 44.12,25.09 47.32,22.80 50.16,20.49 53.00,18.17 55.52,15.94 58.04,13.70 60.47,11.44 62.90,9.17 64.88,7.24 66.87,5.30 68.39,3.61 69.92,1.91 72.32,-0.38 74.71,-2.68 76.79,-4.33 78.87,-5.98 81.05,-6.67 83.24,-7.36 85.48,-6.38 87.72,-5.41 88.67,-2.90 89.63,-0.40 89.81,2.93 90.00,6.27 90.26,9.61 90.52,12.96 91.48,15.88 92.44,18.79 94.06,20.97 95.69,23.14 97.54,24.40 99.40,25.65 102.81,27.05 106.23,28.44 110.25,28.39 114.28,28.35 116.65,27.71 119.02,27.08 121.45,26.10 123.88,25.11 126.21,23.96 128.54,22.81 131.01,21.38 133.47,19.95 135.72,18.29 137.96,16.62 140.02,14.85 142.09,13.08 144.11,11.17 146.13,9.27 147.88,7.38 149.62,5.49 151.06,3.63 152.49,1.78 153.93,-0.03 155.36,-1.85 156.73,-3.59 158.09,-5.33 160.04,-7.98 161.98,-10.64 163.30,-13.09 164.63,-15.54 166.13,-17.87 167.64,-20.21 167.89,-20.63 168.15,-21.05 168.59,-21.29 169.04,-21.52 169.53,-21.64 170.01,-21.76 170.52,-21.76 171.02,-21.76 171.51,-21.64 172.00,-21.53 172.45,-21.29 172.89,-21.06 173.27,-20.73 173.65,-20.39 173.93,-19.98 174.22,-19.56 174.40,-19.09 174.58,-18.62 174.64,-18.12 174.70,-17.62 174.64,-17.12 174.58,-16.62 174.40,-16.15 174.23,-15.68 173.94,-15.27 173.66,-14.85 173.28,-14.52 172.90,-14.18 172.73,-11.44 172.55,-8.69 172.21,-5.41 171.86,-2.13 171.69,1.24 171.51,4.62 172.46,7.81 173.40,10.99 175.24,13.69 177.08,16.38 179.68,18.07 182.28,19.75 185.35,20.55 188.42,21.35 191.85,21.58 195.27,21.81 198.71,21.25 202.15,20.69 205.83,19.40 209.50,18.11 211.66,17.18 213.83,16.25 215.98,15.17 218.12,14.09 220.52,12.69 222.92,11.29 225.24,9.77 227.55,8.25 230.03,6.47 232.51,4.68 234.86,2.83 237.21,0.98 239.55,-0.95 241.89,-2.89 244.56,-4.77 247.22,-6.66 249.30,-8.46 251.38,-10.26 253.42,-12.16 255.45,-14.06 257.25,-15.85 259.06,-17.64 260.80,-19.34 262.54,-21.03 264.17,-22.82 265.80,-24.61 267.34,-26.57 268.89,-28.53 270.60,-31.26 272.31,-33.99 274.21,-36.98 276.11,-39.96 276.28,-40.35 276.45,-40.74 276.73,-41.06 277.02,-41.38 277.39,-41.59 277.76,-41.79 278.17,-41.87 278.59,-41.95 279.01,-41.90 279.43,-41.84 279.81,-41.65 280.20,-41.46 280.50,-41.16 280.80,-40.86 280.98,-40.48 281.17,-40.10 281.23,-39.68 281.29,-39.26 281.21,-38.84 281.13,-38.42 280.92,-38.05 280.71,-37.68 280.39,-37.40 280.07,-37.11 279.68,-36.95 279.29,-36.78 278.87,-36.74 278.45,-36.71 278.03,-36.81 277.62,-36.92 277.26,-37.15 276.91,-37.37 276.64,-37.71 276.37,-38.04 276.23,-38.44 276.08,-38.84 276.07,-39.26 276.06,-39.69 276.18,-40.09 276.31,-40.50 276.56,-40.84 276.81,-41.19 277.15,-41.43 277.50,-41.68 277.90,-41.81 278.31,-41.93 278.73,-41.92 279.16,-41.91 279.56,-41.76 279.96,-41.61 280.29,-41.35 280.62,-41.08 280.85,-40.72 281.08,-40.36 281.18,-39.95 281.28,-39.54 281.24,-39.12 281.21,-38.69 281.21,-38.69 281.21,-38.69 281.20,-36.22 281.19,-33.75 279.72,-30.93 278.25,-28.11 277.03,-26.19 275.81,-24.27 273.82,-21.71 271.83,-19.15 270.06,-17.18 268.29,-15.20 266.54,-13.46 264.80,-11.72 262.90,-9.92 261.01,-8.12 258.84,-6.10 256.68,-4.08 254.30,-2.05 251.92,-0.02 249.50,1.67 247.08,3.37 244.67,5.36 242.27,7.36 239.76,9.36 237.26,11.35 234.63,13.21 232.00,15.06 229.51,16.69 227.01,18.32 224.41,19.83 221.82,21.33 219.42,22.57 217.01,23.80 214.80,24.72 212.58,25.64 210.38,26.53 208.17,27.42 206.06,28.02 203.95,28.63 201.67,29.12 199.40,29.62 195.10,29.71 190.80,29.80 186.76,29.10 182.72,28.41 180.51,27.66 178.29,26.90 176.41,25.80 174.53,24.69 172.75,23.22 170.96,21.74 169.34,19.78 167.72,17.83 166.75,15.82 165.77,13.81 164.95,11.50 164.13,9.20 163.70,6.83 163.28,4.46 163.40,0.59 163.53,-3.27 163.96,-6.84 164.38,-10.42 165.11,-13.42 165.85,-16.42 167.00,-18.73 168.15,-21.05 168.59,-21.28 169.04,-21.52 169.52,-21.64 170.01,-21.76 170.52,-21.76 171.02,-21.76 171.51,-21.65 172.00,-21.53 172.44,-21.29 172.89,-21.06 173.27,-20.73 173.65,-20.39 173.93,-19.98 174.22,-19.57 174.40,-19.09 174.58,-18.62 174.64,-18.12 174.70,-17.62 174.64,-17.12 174.58,-16.62 174.40,-16.15 174.23,-15.68 173.94,-15.27 173.66,-14.85 173.28,-14.52 172.90,-14.18 173.31,-14.40 173.72,-14.62 172.41,-12.39 171.10,-10.16 169.93,-7.96 168.76,-5.76 166.63,-3.00 164.50,-0.23 163.13,1.47 161.75,3.18 160.33,4.98 158.92,6.77 157.25,8.90 155.59,11.03 153.65,13.11 151.71,15.19 149.57,17.20 147.43,19.21 145.12,21.25 142.81,23.29 140.18,25.18 137.54,27.06 134.83,28.59 132.13,30.11 129.51,31.39 126.88,32.67 123.97,33.81 121.06,34.95 118.08,35.69 115.10,36.44 111.97,36.76 108.84,37.08 104.22,36.00 99.59,34.93 97.00,33.67 94.41,32.42 92.09,30.57 89.77,28.72 87.13,25.15 84.50,21.57 83.36,17.75 82.22,13.93 82.04,10.21 81.87,6.49 82.86,3.42 83.86,0.34 81.88,1.96 79.89,3.59 77.92,5.48 75.96,7.37 74.25,9.24 72.55,11.12 70.53,13.09 68.52,15.06 66.06,17.46 63.59,19.87 60.91,22.32 58.23,24.76 55.15,27.15 52.07,29.54 48.55,31.99 45.03,34.45 41.40,36.52 37.78,38.60 33.98,40.19 30.18,41.77 26.25,42.63 22.32,43.48 18.78,42.96 15.25,42.45 12.16,41.37 9.07,40.29 6.13,38.63 3.18,36.97 1.08,34.85 -1.02,32.73 -2.76,29.96 -4.49,27.20 -5.50,24.28 -6.51,21.37 -6.81,17.81 -7.12,14.26 -6.49,10.68 -5.87,7.10 -4.91,3.08 -3.95,-0.94 -3.78,-1.40 -3.61,-1.86 -3.34,-2.26 -3.06,-2.67 -2.70,-3.00 -2.33,-3.32 -1.90,-3.56 -1.47,-3.79 -0.99,-3.91 -0.52,-4.03 -0.03,-4.03 0.45,-4.04 0.93,-3.92 1.41,-3.81 1.84,-3.58 2.28,-3.36 2.65,-3.04 3.02,-2.72 3.30,-2.31 3.58,-1.91 3.76,-1.46 3.94,-1.00 4.00,-0.51 4.06,-0.03 4.01,0.45 3.95,0.94 3.95,0.94 L 3.95,0.94 Z"></path></g></svg>